<?xml version="1.0" standalone="no"?>
<!DOCTYPE svg PUBLIC "-//W3C//DTD SVG 20010904//EN"
 "http://www.w3.org/TR/2001/REC-SVG-20010904/DTD/svg10.dtd">
<svg version="1.0" xmlns="http://www.w3.org/2000/svg"
 width="300.000000pt" height="300.000000pt" viewBox="0 0 300.000000 300.000000"
 preserveAspectRatio="xMidYMid meet">
<metadata>
Created by potrace 1.10, written by Peter Selinger 2001-2011
</metadata>
<g transform="translate(0.000000,300.000000) scale(0.100000,-0.100000)"
fill="#000000" stroke="none">
<path d="M713 2528 c-14 -25 -7 -231 11 -293 44 -147 130 -251 262 -317 68
-33 86 -39 98 -29 28 23 66 99 82 163 14 53 15 73 5 127 -34 185 -187 315
-418 355 -20 3 -35 1 -40 -6z m183 -87 c80 -37 166 -118 199 -185 22 -46 46
-176 32 -176 -3 0 -13 26 -22 57 -9 31 -30 76 -46 99 -51 75 -159 154 -193
141 -29 -11 -17 -31 39 -66 71 -43 121 -99 152 -169 31 -70 36 -159 11 -175
-24 -16 -30 -6 -40 64 -9 72 -48 148 -96 190 -27 24 -33 35 -28 55 7 26 -3 31
-22 12 -20 -20 -13 -43 27 -89 41 -48 81 -112 81 -132 0 -7 7 -25 15 -41 l15
-29 -37 6 c-77 13 -168 112 -202 220 -23 76 -36 183 -26 227 7 30 9 32 42 27
19 -4 64 -20 99 -36z"/>
<path d="M799 2440 c13 -11 30 -20 37 -20 35 0 124 -58 184 -119 61 -62 63
-63 31 -18 -54 75 -151 143 -236 165 l-40 11 24 -19z"/>
<path d="M1265 2288 c-27 -5 -51 -11 -53 -12 -1 -2 3 -24 10 -50 12 -44 15
-47 38 -41 14 3 68 8 121 12 159 9 316 -37 458 -137 52 -37 62 -40 82 -30 12
7 39 10 60 7 22 -3 39 -3 39 -1 0 9 -75 71 -148 121 -168 117 -410 169 -607
131z m285 -38 c84 -11 269 -91 334 -144 45 -37 14 -39 -42 -2 -147 97 -298
140 -466 133 -94 -4 -107 -3 -92 9 14 10 49 12 135 9 64 -2 123 -4 131 -5z"/>
<path d="M530 2061 c-62 -20 -136 -56 -144 -70 -8 -12 82 -121 126 -154 75
-56 119 -72 203 -72 91 0 134 19 182 82 26 34 26 35 7 47 -10 6 -23 11 -29 11
-5 1 -32 24 -60 52 -47 49 -53 52 -110 57 -55 5 -56 4 -17 -4 38 -8 112 -45
112 -55 0 -2 -19 5 -42 15 -55 25 -169 28 -188 5 -19 -23 -5 -30 68 -30 52 -1
78 -7 118 -27 90 -47 96 -76 20 -98 -90 -25 -177 6 -273 96 -65 61 -66 59 27
96 40 15 78 22 137 22 46 1 83 3 83 6 0 3 -7 13 -14 23 -18 23 -131 22 -206
-2z"/>
<path d="M1921 1958 c-4 -13 -11 -63 -15 -113 -5 -76 -3 -98 14 -143 11 -29
20 -63 20 -77 0 -14 4 -25 10 -25 8 0 20 346 12 370 -6 18 -32 10 -41 -12z"/>
<path d="M2004 1967 c-2 -7 -3 -94 -2 -192 3 -172 4 -180 23 -180 19 0 20 8
23 170 1 94 0 180 -3 193 -6 24 -33 30 -41 9z"/>
<path d="M2086 1973 c-3 -4 -3 -105 0 -224 l7 -217 -31 -31 c-33 -34 -54 -38
-93 -17 -25 13 -26 12 -36 -25 -9 -34 -8 -38 14 -48 23 -11 24 -14 22 -122
l-1 -111 68 -69 69 -69 27 54 c79 156 117 363 98 531 -7 55 -13 101 -14 103
-2 1 -3 -55 -2 -125 1 -123 0 -130 -27 -176 -15 -26 -39 -54 -52 -63 -14 -9
-25 -23 -25 -30 0 -26 -54 -174 -63 -174 -5 0 -6 7 -3 16 3 9 6 63 6 120 0 99
1 105 23 113 54 21 87 81 87 157 0 56 -27 346 -36 392 -4 21 -23 29 -38 15z
m-56 -549 c0 -7 -5 -16 -11 -20 -13 -8 -34 11 -26 23 9 14 37 12 37 -3z m115
-199 c-29 -90 -47 -117 -68 -96 -9 9 -9 15 1 29 17 24 52 94 52 104 0 5 7 25
17 46 28 65 27 9 -2 -83z"/>
<path d="M1348 1951 c-188 -62 -297 -227 -286 -430 8 -134 61 -232 166 -310
111 -83 288 -105 407 -52 l50 22 46 -50 46 -50 39 40 38 39 -41 43 -42 42 25
30 c61 74 94 171 94 281 0 163 -92 304 -245 375 -89 42 -207 50 -297 20z m285
-54 c110 -50 197 -166 217 -289 17 -105 -6 -186 -95 -334 l-19 -32 27 -41 c15
-22 27 -43 27 -46 0 -13 -26 -2 -62 27 -39 30 -42 31 -82 19 -97 -28 -125 -33
-196 -29 -135 8 -252 85 -316 209 -26 49 -28 63 -29 164 0 98 3 116 26 166 44
93 109 154 208 196 78 33 210 28 294 -10z"/>
<path d="M1393 1885 c-120 -28 -216 -127 -249 -254 -47 -185 65 -368 255 -416
152 -40 313 39 387 191 26 52 29 69 28 149 0 96 -8 120 -66 202 -76 106 -224
160 -355 128z m205 -55 c68 -29 144 -112 167 -181 23 -67 16 -170 -14 -232
-30 -61 -86 -117 -147 -147 -69 -34 -189 -35 -255 -2 -61 30 -113 81 -147 145
-23 45 -27 64 -27 137 0 73 4 92 27 135 44 84 117 143 203 166 48 13 137 3
193 -21z"/>
<path d="M1375 1766 c-89 -41 -135 -114 -135 -216 0 -33 6 -75 13 -93 15 -35
64 -97 77 -97 4 0 13 14 20 30 18 44 74 89 120 96 22 4 40 10 40 13 0 14 -24
31 -44 31 -37 0 13 39 73 56 31 9 63 23 72 30 27 24 32 16 24 -43 -16 -132
-75 -203 -167 -203 -26 0 -50 5 -53 10 -11 17 -24 11 -40 -20 l-15 -29 37 -10
c146 -41 283 40 313 185 39 188 -159 342 -335 260z m180 -40 c31 -22 4 -45
-44 -39 -56 8 -123 -25 -155 -76 -28 -44 -43 -51 -53 -25 -14 38 54 118 122
142 43 15 108 14 130 -2z m70 -32 c8 -9 25 -35 37 -57 28 -57 22 -148 -16
-203 -31 -46 -33 -42 -6 18 11 25 22 69 26 99 5 44 3 58 -13 77 l-19 24 -60
-20 c-109 -36 -154 -70 -140 -107 3 -8 -3 -17 -14 -20 -10 -3 -35 -24 -57 -45
-21 -22 -41 -40 -45 -40 -16 0 -48 81 -48 120 l0 40 25 -16 c32 -21 55 -12 93
35 34 43 88 67 128 57 19 -5 31 0 52 23 33 35 36 35 57 15z"/>
<path d="M580 1916 c0 -8 6 -18 13 -23 21 -16 166 -65 179 -60 18 6 -48 45
-97 58 -22 6 -52 17 -67 24 -23 12 -28 12 -28 1z"/>
<path d="M948 1813 c-115 -175 -126 -364 -31 -552 68 -135 200 -241 356 -286
114 -33 298 -17 395 35 68 35 68 36 48 59 -17 19 -18 19 -79 -10 -300 -139
-663 52 -719 379 -20 118 16 264 88 359 l25 33 -26 10 c-15 6 -28 10 -29 10
-2 0 -15 -17 -28 -37z"/>
<path d="M582 1703 c-4 -10 -7 -88 -6 -173 1 -139 3 -164 28 -245 36 -117 56
-162 110 -243 221 -332 656 -461 1035 -306 47 18 89 38 95 44 7 7 -1 21 -25
46 l-35 35 -55 -25 c-101 -46 -174 -61 -309 -60 -150 0 -215 16 -350 82 -79
38 -109 60 -180 131 -145 145 -213 309 -214 516 -1 61 2 129 6 151 l8 42 -44
11 c-57 14 -55 14 -64 -6z m54 -145 c-4 -111 8 -225 29 -273 7 -16 16 -41 20
-55 21 -73 103 -196 183 -275 71 -70 115 -101 207 -144 119 -56 216 -76 365
-75 115 1 133 4 228 36 107 37 145 37 64 0 -96 -43 -169 -56 -317 -56 -160 0
-221 13 -351 74 -232 108 -386 307 -435 563 -26 138 -25 307 2 307 5 0 7 -46
5 -102z"/>
<path d="M1827 1071 c-37 -38 -67 -73 -67 -78 0 -20 47 -75 234 -270 130 -135
213 -214 239 -226 38 -18 42 -18 84 -2 68 26 101 101 75 167 -4 10 -108 121
-230 248 -162 166 -230 230 -246 230 -15 0 -46 -24 -89 -69z m217 -93 c55 -57
148 -153 208 -215 98 -102 108 -115 108 -149 0 -53 -31 -84 -84 -84 -40 0 -45
4 -238 202 -108 112 -205 218 -215 236 l-18 33 52 50 c42 40 56 48 70 40 10
-5 63 -56 117 -113z"/>
</g>
</svg>
